<?xml version="1.0" encoding="UTF-8"?>
<svg xmlns="http://www.w3.org/2000/svg" xmlns:xlink="http://www.w3.org/1999/xlink" width="1080" height="1920" viewBox="0 0 1080 1920">
<defs>
<g>
<g id="glyph-0-0">
<path d="M 3.824219 -4.097656 C 4.03125 -4.097656 4.265625 -4.140625 4.53125 -4.21875 L 4.53125 -9.542969 L 3.046875 -9.542969 L 3.046875 -4.789062 C 3.046875 -4.328125 3.308594 -4.097656 3.824219 -4.097656 Z M 4.53125 0 L 4.53125 -2.101562 C 4.230469 -2.007812 3.859375 -1.964844 3.410156 -1.964844 C 2.421875 -1.964844 1.714844 -2.1875 1.28125 -2.636719 C 0.851562 -3.082031 0.636719 -3.765625 0.636719 -4.683594 L 0.636719 -9.542969 L -0.6875 -9.542969 L -0.6875 -11.554688 L 8.351562 -11.554688 L 8.351562 -9.542969 L 6.941406 -9.542969 L 6.941406 0 Z "/>
</g>
<g id="glyph-0-1">
<path d="M 3.875 3.425781 C 3.015625 3.425781 2.582031 2.996094 2.582031 2.136719 C 2.582031 1.273438 3.015625 0.84375 3.875 0.84375 C 4.734375 0.84375 5.167969 1.273438 5.167969 2.136719 C 5.167969 2.996094 4.734375 3.425781 3.875 3.425781 Z M 4.546875 -3.425781 C 4.453125 -3.507812 4.3125 -3.546875 4.117188 -3.546875 C 3.921875 -3.546875 3.753906 -3.5 3.617188 -3.410156 L 3.617188 -5.527344 C 3.835938 -5.621094 4.109375 -5.667969 4.445312 -5.667969 C 5.316406 -5.667969 5.960938 -5.464844 6.371094 -5.0625 C 6.785156 -4.660156 6.992188 -3.988281 6.992188 -3.046875 L 6.992188 -2.789062 C 6.992188 -1.800781 6.738281 -1.078125 6.234375 -0.613281 C 5.730469 -0.148438 4.925781 0.0859375 3.824219 0.0859375 C 1.664062 0.0859375 0.585938 -0.902344 0.585938 -2.875 L 0.585938 -5.855469 C 0.585938 -6.832031 0.820312 -7.53125 1.292969 -7.957031 C 1.761719 -8.382812 2.53125 -8.59375 3.597656 -8.59375 L 4.21875 -8.59375 L 4.21875 -9.542969 L -0.6875 -9.542969 L -0.6875 -11.554688 L 8.164062 -11.554688 L 8.164062 -9.542969 L 6.597656 -9.542969 L 6.597656 -6.40625 L 3.597656 -6.40625 C 3.335938 -6.40625 3.164062 -6.359375 3.082031 -6.261719 C 3.003906 -6.164062 2.960938 -6 2.960938 -5.769531 L 2.960938 -2.960938 C 2.960938 -2.675781 3.019531 -2.460938 3.132812 -2.324219 C 3.25 -2.1875 3.480469 -2.117188 3.824219 -2.117188 C 4.167969 -2.117188 4.398438 -2.179688 4.511719 -2.308594 C 4.625 -2.433594 4.683594 -2.640625 4.683594 -2.929688 L 4.683594 -2.960938 C 4.683594 -3.191406 4.636719 -3.347656 4.546875 -3.425781 Z "/>
</g>
<g id="glyph-0-2">
<path d="M 3.425781 -6.234375 C 3.175781 -6.234375 3.007812 -6.179688 2.929688 -6.070312 C 2.847656 -5.960938 2.808594 -5.792969 2.808594 -5.5625 L 2.808594 -3.71875 C 2.808594 -3.488281 2.847656 -3.320312 2.929688 -3.210938 C 3.007812 -3.101562 3.175781 -3.046875 3.425781 -3.046875 C 3.679688 -3.046875 3.847656 -3.101562 3.925781 -3.210938 C 4.007812 -3.320312 4.046875 -3.492188 4.046875 -3.71875 L 4.046875 -5.183594 C 4.046875 -5.675781 4.007812 -6.027344 3.925781 -6.234375 Z M 7.335938 -6.234375 L 6.199219 -6.234375 C 6.269531 -5.992188 6.304688 -5.671875 6.304688 -5.269531 L 6.304688 -3.703125 C 6.304688 -2.773438 6.078125 -2.074219 5.632812 -1.601562 C 5.183594 -1.132812 4.449219 -0.894531 3.425781 -0.894531 C 2.40625 -0.894531 1.664062 -1.132812 1.207031 -1.609375 C 0.746094 -2.085938 0.515625 -2.785156 0.515625 -3.703125 L 0.515625 -5.648438 C 0.515625 -6.566406 0.746094 -7.265625 1.207031 -7.742188 C 1.664062 -8.21875 2.40625 -8.457031 3.425781 -8.457031 L 7.335938 -8.457031 L 7.335938 -9.542969 L -0.6875 -9.542969 L -0.6875 -11.554688 L 11.160156 -11.554688 L 11.160156 -9.542969 L 9.746094 -9.542969 L 9.746094 0 L 7.335938 0 Z "/>
</g>
<g id="glyph-0-3">
<path d="M -5.820312 -15.464844 C -5.558594 -15.5 -5.214844 -15.519531 -4.796875 -15.519531 C -4.378906 -15.519531 -3.960938 -15.410156 -3.546875 -15.199219 C -3.132812 -14.988281 -2.734375 -14.585938 -2.34375 -14.003906 L -0.722656 -11.554688 L -3.167969 -11.554688 L -4.066406 -12.796875 C -4.410156 -13.277344 -4.84375 -13.519531 -5.375 -13.519531 C -5.558594 -13.519531 -5.707031 -13.515625 -5.820312 -13.503906 Z "/>
</g>
<g id="glyph-0-4">
<rect x="0" y="0" width="0" height="0" mask="url(#mask-0)"/>
</g>
<g id="glyph-0-5">
<path d="M 2.808594 -3.582031 C 2.808594 -3.339844 2.859375 -3.160156 2.960938 -3.039062 C 3.066406 -2.917969 3.25 -2.859375 3.511719 -2.859375 C 3.777344 -2.859375 4.023438 -2.90625 4.253906 -2.996094 L 4.253906 -9.542969 L -0.6875 -9.542969 L -0.6875 -11.554688 L 11.554688 -11.554688 L 11.554688 -9.542969 L 6.597656 -9.542969 L 6.597656 -8.609375 C 6.90625 -8.667969 7.257812 -8.699219 7.648438 -8.699219 C 8.578125 -8.699219 9.257812 -8.472656 9.6875 -8.027344 C 10.117188 -7.578125 10.332031 -6.902344 10.332031 -5.992188 L 10.332031 -3.703125 C 10.332031 -2.785156 10.132812 -2.105469 9.730469 -1.671875 C 9.328125 -1.234375 8.65625 -1.015625 7.714844 -1.015625 L 7.355469 -1.050781 L 7.355469 -3.308594 C 7.664062 -3.261719 7.855469 -3.292969 7.929688 -3.402344 C 8.003906 -3.511719 8.042969 -3.691406 8.042969 -3.945312 L 8.042969 -5.90625 C 8.042969 -6.148438 7.992188 -6.328125 7.886719 -6.449219 C 7.785156 -6.570312 7.59375 -6.628906 7.320312 -6.628906 L 6.597656 -6.542969 L 6.597656 0 L 4.238281 0 L 4.238281 -1.015625 C 3.914062 -0.925781 3.570312 -0.878906 3.203125 -0.878906 C 2.261719 -0.878906 1.578125 -1.089844 1.152344 -1.507812 C 0.730469 -1.925781 0.515625 -2.582031 0.515625 -3.480469 L 0.515625 -5.992188 C 0.515625 -6.898438 0.730469 -7.578125 1.164062 -8.027344 C 1.59375 -8.472656 2.273438 -8.699219 3.203125 -8.699219 L 3.703125 -8.644531 L 3.703125 -6.613281 C 3.644531 -6.625 3.535156 -6.628906 3.367188 -6.628906 C 3.199219 -6.628906 3.066406 -6.570312 2.960938 -6.449219 C 2.859375 -6.328125 2.808594 -6.148438 2.808594 -5.90625 Z "/>
</g>
<g id="glyph-0-6">
<path d="M 0.773438 -11.554688 L 0.773438 -11.832031 C 0.773438 -13.082031 1.179688 -14.015625 1.988281 -14.628906 C 2.796875 -15.246094 3.933594 -15.550781 5.390625 -15.550781 C 7.746094 -15.550781 10.710938 -15.269531 14.292969 -14.707031 L 14.292969 -12.574219 C 10.449219 -13.078125 7.550781 -13.332031 5.597656 -13.332031 C 4.679688 -13.332031 4.046875 -13.214844 3.703125 -12.984375 C 3.359375 -12.753906 3.1875 -12.355469 3.1875 -11.78125 L 3.1875 -11.554688 L 4.546875 -11.554688 L 4.546875 -9.542969 L 3.132812 -9.542969 L 3.132812 0 L 0.722656 0 L 0.722656 -9.542969 L -0.6875 -9.542969 L -0.6875 -11.554688 Z "/>
</g>
<g id="glyph-0-7">
<path d="M 0.601562 -3.132812 L 0.601562 -5.699219 C 0.601562 -6.597656 0.859375 -7.289062 1.378906 -7.777344 C 1.894531 -8.265625 2.632812 -8.507812 3.589844 -8.507812 C 4.550781 -8.507812 5.191406 -8.191406 5.511719 -7.5625 C 5.925781 -8.179688 6.515625 -8.492188 7.285156 -8.492188 L 8.113281 -8.40625 L 8.113281 -9.542969 L -0.6875 -9.542969 L -0.6875 -11.554688 L 11.933594 -11.554688 L 11.933594 -9.542969 L 10.523438 -9.542969 L 10.523438 0 L 8.113281 0 L 8.113281 -6.199219 C 7.941406 -6.257812 7.738281 -6.285156 7.507812 -6.285156 C 7.015625 -6.285156 6.769531 -6.0625 6.769531 -5.613281 L 6.769531 -3.652344 L 4.355469 -3.652344 L 4.355469 -5.613281 C 4.355469 -5.832031 4.3125 -6 4.21875 -6.113281 C 4.128906 -6.230469 3.949219 -6.285156 3.6875 -6.285156 C 3.421875 -6.285156 3.242188 -6.230469 3.152344 -6.113281 C 3.058594 -6 3.015625 -5.832031 3.015625 -5.613281 L 3.015625 -3.238281 C 3.015625 -2.90625 3.097656 -2.652344 3.265625 -2.480469 C 3.429688 -2.308594 3.726562 -2.222656 4.152344 -2.222656 C 4.574219 -2.222656 4.941406 -2.238281 5.253906 -2.273438 L 5.253906 -0.0703125 C 4.886719 -0.0234375 4.5 0 4.097656 0 C 2.882812 0 1.996094 -0.253906 1.4375 -0.765625 C 0.882812 -1.277344 0.601562 -2.066406 0.601562 -3.132812 Z "/>
</g>
<g id="glyph-0-8">
<path d="M 4.324219 0.0859375 C 3.058594 0.0859375 2.140625 -0.179688 1.566406 -0.707031 C 0.992188 -1.234375 0.707031 -2.054688 0.707031 -3.167969 L 0.707031 -9.542969 L -0.6875 -9.542969 L -0.6875 -11.554688 L 8.285156 -11.554688 L 8.285156 -9.542969 L 7.007812 -9.542969 L 7.007812 -6.957031 C 7.007812 -6.027344 6.808594 -5.34375 6.40625 -4.898438 C 6.003906 -4.457031 5.292969 -4.238281 4.269531 -4.238281 C 4.203125 -4.238281 4.085938 -4.25 3.925781 -4.269531 L 3.925781 -6.492188 L 4.082031 -6.492188 C 4.300781 -6.492188 4.441406 -6.53125 4.503906 -6.605469 C 4.566406 -6.679688 4.597656 -6.847656 4.597656 -7.113281 L 4.597656 -9.542969 L 3.117188 -9.542969 L 3.117188 -3.253906 C 3.117188 -2.863281 3.210938 -2.582031 3.402344 -2.402344 C 3.589844 -2.222656 3.984375 -2.136719 4.582031 -2.136719 C 5.179688 -2.136719 5.832031 -2.238281 6.542969 -2.445312 L 6.542969 -0.257812 C 5.855469 -0.0273438 5.113281 0.0859375 4.324219 0.0859375 Z "/>
</g>
</g>
<image id="source-26" x="0" y="0" width="0" height="0"/>
<mask id="mask-0">
<use xlink:href="#source-26"/>
</mask>
</defs>
<g fill="rgb(100%, 100%, 100%)" fill-opacity="1">
<use xlink:href="#glyph-0-0" x="30" y="38.083984"/>
<use xlink:href="#glyph-0-1" x="38" y="38.083984"/>
<use xlink:href="#glyph-0-2" x="45" y="38.083984"/>
<use xlink:href="#glyph-0-3" x="55" y="38.083984"/>
<use xlink:href="#glyph-0-4" x="55" y="38.083984"/>
<use xlink:href="#glyph-0-5" x="58" y="38.083984"/>
<use xlink:href="#glyph-0-3" x="65" y="38.083984"/>
<use xlink:href="#glyph-0-4" x="69" y="38.083984"/>
<use xlink:href="#glyph-0-6" x="72" y="38.083984"/>
<use xlink:href="#glyph-0-7" x="76" y="38.083984"/>
<use xlink:href="#glyph-0-8" x="87" y="38.083984"/>
</g>
</svg>
