<?xml version="1.0" encoding="UTF-8"?>
<svg xmlns="http://www.w3.org/2000/svg" xmlns:xlink="http://www.w3.org/1999/xlink" width="1080" height="1920" viewBox="0 0 1080 1920">
<defs>
<g>
<g id="glyph-0-0">
<path d="M 4.449219 0 L 4.449219 -3.28125 L 3.710938 -3.28125 L 3.710938 -2.078125 C 3.710938 -1.058594 3.132812 -0.550781 1.980469 -0.550781 C 0.828125 -0.550781 0.25 -1.058594 0.25 -2.078125 L 0.25 -2.941406 C 0.25 -3.953125 0.828125 -4.460938 1.980469 -4.460938 L 2.371094 -4.460938 L 2.371094 -5.539062 L -0.398438 -5.539062 L -0.398438 -6.710938 L 6.640625 -6.710938 L 6.640625 -5.539062 L 5.820312 -5.539062 L 5.820312 0 Z M 3.710938 -4.460938 L 4.449219 -4.460938 L 4.449219 -5.539062 L 3.710938 -5.539062 Z M 2.371094 -2.128906 L 2.371094 -3.28125 L 1.980469 -3.28125 C 1.828125 -3.28125 1.722656 -3.246094 1.671875 -3.179688 C 1.617188 -3.113281 1.589844 -3.015625 1.589844 -2.890625 L 1.589844 -2.128906 C 1.589844 -2.003906 1.617188 -1.90625 1.671875 -1.839844 C 1.722656 -1.773438 1.828125 -1.738281 1.980469 -1.738281 C 2.132812 -1.738281 2.238281 -1.773438 2.289062 -1.839844 C 2.34375 -1.90625 2.371094 -2.003906 2.371094 -2.128906 Z "/>
</g>
<g id="glyph-0-1">
<path d="M 2.101562 -4.960938 C 2.359375 -4.960938 2.597656 -4.941406 2.808594 -4.898438 L 2.808594 -5.539062 L -0.398438 -5.539062 L -0.398438 -6.710938 L 5.03125 -6.710938 L 5.03125 -5.539062 L 4.210938 -5.539062 L 4.210938 0 L 2.808594 0 L 2.808594 -3.621094 C 2.628906 -3.652344 2.464844 -3.671875 2.308594 -3.671875 C 1.9375 -3.671875 1.75 -3.507812 1.75 -3.179688 L 1.75 -1.679688 C 1.75 -1.527344 1.785156 -1.425781 1.859375 -1.375 C 1.933594 -1.324219 2.058594 -1.300781 2.238281 -1.300781 L 2.238281 0.0195312 L 1.941406 0.0195312 C 1.347656 0.0195312 0.933594 -0.105469 0.699219 -0.355469 C 0.464844 -0.605469 0.351562 -1 0.351562 -1.539062 L 0.351562 -3.230469 C 0.351562 -3.769531 0.492188 -4.191406 0.78125 -4.5 C 1.066406 -4.808594 1.507812 -4.960938 2.101562 -4.960938 Z "/>
</g>
<g id="glyph-0-2">
<path d="M 0.351562 -1.820312 L 0.351562 -3.308594 C 0.351562 -3.828125 0.5 -4.230469 0.800781 -4.515625 C 1.101562 -4.796875 1.527344 -4.941406 2.085938 -4.941406 C 2.640625 -4.941406 3.011719 -4.757812 3.199219 -4.390625 C 3.441406 -4.75 3.785156 -4.929688 4.230469 -4.929688 L 4.710938 -4.878906 L 4.710938 -5.539062 L -0.398438 -5.539062 L -0.398438 -6.710938 L 6.929688 -6.710938 L 6.929688 -5.539062 L 6.109375 -5.539062 L 6.109375 0 L 4.710938 0 L 4.710938 -3.601562 C 4.609375 -3.632812 4.492188 -3.648438 4.359375 -3.648438 C 4.074219 -3.648438 3.929688 -3.519531 3.929688 -3.261719 L 3.929688 -2.121094 L 2.53125 -2.121094 L 2.53125 -3.261719 C 2.53125 -3.386719 2.503906 -3.484375 2.449219 -3.550781 C 2.394531 -3.617188 2.292969 -3.648438 2.140625 -3.648438 C 1.988281 -3.648438 1.882812 -3.617188 1.828125 -3.550781 C 1.777344 -3.484375 1.75 -3.386719 1.75 -3.261719 L 1.75 -1.878906 C 1.75 -1.6875 1.796875 -1.539062 1.894531 -1.441406 C 1.992188 -1.339844 2.164062 -1.289062 2.410156 -1.289062 C 2.65625 -1.289062 2.871094 -1.300781 3.050781 -1.320312 L 3.050781 -0.0390625 C 2.835938 -0.0117188 2.613281 0 2.378906 0 C 1.671875 0 1.160156 -0.148438 0.835938 -0.445312 C 0.511719 -0.742188 0.351562 -1.199219 0.351562 -1.820312 Z "/>
</g>
<g id="glyph-0-3">
<path d="M -0.398438 -6.710938 L 5.101562 -6.710938 L 5.101562 -5.539062 L 4.28125 -5.539062 L 4.28125 0 L 2.949219 0 L 2.949219 -0.609375 C 2.769531 -0.554688 2.53125 -0.53125 2.230469 -0.53125 C 1.582031 -0.53125 1.101562 -0.65625 0.78125 -0.90625 C 0.460938 -1.15625 0.300781 -1.589844 0.300781 -2.210938 L 0.300781 -3.378906 C 0.300781 -4 0.453125 -4.433594 0.753906 -4.683594 C 1.058594 -4.933594 1.53125 -5.058594 2.171875 -5.058594 C 2.46875 -5.058594 2.730469 -5.023438 2.949219 -4.949219 L 2.949219 -5.539062 L -0.398438 -5.539062 Z M 2.949219 -3.800781 C 2.742188 -3.875 2.53125 -3.910156 2.316406 -3.910156 C 2.097656 -3.910156 1.929688 -3.867188 1.808594 -3.78125 L 2.949219 -2.648438 Z M 1.628906 -2.269531 C 1.628906 -1.875 1.863281 -1.679688 2.328125 -1.679688 C 2.476562 -1.679688 2.664062 -1.691406 2.890625 -1.71875 L 1.628906 -2.96875 Z "/>
</g>
<g id="glyph-0-4">
<rect x="0" y="0" width="0" height="0" mask="url(#mask-0)"/>
</g>
<g id="glyph-0-5">
<path d="M 2.640625 -6.710938 L 2.640625 -5.539062 L 1.820312 -5.539062 L 1.820312 0 L 0.421875 0 L 0.421875 -5.539062 L -0.398438 -5.539062 L -0.398438 -6.710938 L 0.398438 -6.710938 L -0.121094 -7.429688 C -0.320312 -7.710938 -0.574219 -7.851562 -0.878906 -7.851562 C -0.984375 -7.851562 -1.074219 -7.847656 -1.140625 -7.839844 L -1.140625 -8.980469 C -0.992188 -9 -0.796875 -9.011719 -0.550781 -9.011719 C -0.304688 -9.011719 -0.0585938 -8.949219 0.179688 -8.824219 C 0.417969 -8.703125 0.652344 -8.46875 0.878906 -8.128906 L 1.820312 -6.710938 Z "/>
</g>
<g id="glyph-0-6">
<path d="M 0.378906 -1.578125 L 0.378906 -1.75 C 0.378906 -2.203125 0.523438 -2.527344 0.808594 -2.71875 C 0.523438 -2.886719 0.375 -3.175781 0.371094 -3.589844 L 0.371094 -3.769531 C 0.371094 -4.238281 0.507812 -4.570312 0.78125 -4.773438 C 1.054688 -4.976562 1.480469 -5.078125 2.058594 -5.078125 L 2.53125 -5.078125 L 2.53125 -5.539062 L -0.398438 -5.539062 L -0.398438 -6.710938 L 4.878906 -6.710938 L 4.878906 -5.539062 L 3.929688 -5.539062 L 3.929688 -3.878906 L 2.058594 -3.878906 C 1.867188 -3.878906 1.769531 -3.804688 1.769531 -3.648438 L 1.769531 -3.570312 C 1.769531 -3.417969 1.867188 -3.339844 2.058594 -3.339844 L 2.789062 -3.339844 C 3.289062 -3.339844 3.648438 -3.226562 3.859375 -3.003906 C 4.074219 -2.78125 4.179688 -2.4375 4.179688 -1.96875 L 4.179688 -1.660156 L 2.949219 -1.660156 L 2.949219 -1.839844 C 2.949219 -1.972656 2.925781 -2.066406 2.878906 -2.113281 C 2.832031 -2.164062 2.742188 -2.191406 2.609375 -2.191406 L 2.171875 -2.191406 C 2.015625 -2.191406 1.914062 -2.15625 1.859375 -2.089844 C 1.804688 -2.023438 1.78125 -1.925781 1.78125 -1.800781 L 1.78125 -1.671875 C 1.78125 -1.316406 2.066406 -1.140625 2.640625 -1.140625 C 3.125 -1.140625 3.589844 -1.207031 4.03125 -1.339844 L 4.03125 -0.128906 C 3.558594 0.00390625 3.019531 0.0703125 2.414062 0.0703125 C 1.8125 0.0703125 1.320312 -0.0703125 0.945312 -0.351562 C 0.570312 -0.628906 0.378906 -1.039062 0.378906 -1.578125 Z "/>
</g>
<g id="glyph-0-7">
<path d="M -3.378906 -8.980469 C -3.226562 -9 -3.027344 -9.011719 -2.785156 -9.011719 C -2.542969 -9.011719 -2.300781 -8.949219 -2.058594 -8.824219 C -1.820312 -8.703125 -1.585938 -8.46875 -1.359375 -8.128906 L -0.421875 -6.710938 L -1.839844 -6.710938 L -2.359375 -7.429688 C -2.558594 -7.710938 -2.8125 -7.851562 -3.121094 -7.851562 C -3.226562 -7.851562 -3.3125 -7.847656 -3.378906 -7.839844 Z "/>
</g>
<g id="glyph-0-8">
<path d="M 2.21875 -2.378906 C 2.339844 -2.378906 2.476562 -2.402344 2.628906 -2.449219 L 2.628906 -5.539062 L 1.769531 -5.539062 L 1.769531 -2.78125 C 1.769531 -2.515625 1.921875 -2.378906 2.21875 -2.378906 Z M 2.628906 0 L 2.628906 -1.21875 C 2.457031 -1.167969 2.238281 -1.140625 1.980469 -1.140625 C 1.40625 -1.140625 0.996094 -1.269531 0.746094 -1.53125 C 0.496094 -1.789062 0.371094 -2.1875 0.371094 -2.71875 L 0.371094 -5.539062 L -0.398438 -5.539062 L -0.398438 -6.710938 L 4.851562 -6.710938 L 4.851562 -5.539062 L 4.03125 -5.539062 L 4.03125 0 Z "/>
</g>
<g id="glyph-0-9">
<path d="M 2.398438 -2.421875 C 2.265625 -2.421875 2.066406 -2.441406 1.800781 -2.488281 L 1.800781 -1.789062 C 1.800781 -1.402344 2.105469 -1.210938 2.71875 -1.210938 C 3.1875 -1.210938 3.625 -1.296875 4.039062 -1.46875 L 4.039062 -0.171875 C 3.621094 -0.0234375 3.085938 0.0507812 2.433594 0.0507812 C 1.785156 0.0507812 1.285156 -0.113281 0.929688 -0.441406 C 0.578125 -0.765625 0.398438 -1.199219 0.398438 -1.738281 L 0.398438 -4.511719 L 1.800781 -4.511719 L 1.800781 -3.699219 C 1.921875 -3.667969 2.054688 -3.648438 2.199219 -3.648438 C 2.347656 -3.648438 2.445312 -3.683594 2.5 -3.75 C 2.554688 -3.816406 2.578125 -3.914062 2.578125 -4.039062 L 2.578125 -5.070312 C 2.578125 -5.277344 2.546875 -5.433594 2.480469 -5.539062 L -0.398438 -5.539062 L -0.398438 -6.710938 L 4.769531 -6.710938 L 4.769531 -5.539062 L 3.921875 -5.539062 C 3.960938 -5.433594 3.980469 -5.277344 3.980469 -5.070312 L 3.980469 -4.019531 C 3.980469 -3.492188 3.855469 -3.09375 3.605469 -2.824219 C 3.355469 -2.554688 2.953125 -2.421875 2.398438 -2.421875 Z "/>
</g>
<g id="glyph-0-10">
<path d="M 0.398438 -7.238281 C -0.09375 -7.238281 -0.339844 -7.488281 -0.339844 -7.988281 C -0.339844 -8.488281 -0.0898438 -8.738281 0.40625 -8.738281 C 0.902344 -8.738281 1.148438 -8.488281 1.148438 -7.988281 C 1.148438 -7.488281 0.898438 -7.238281 0.398438 -7.238281 Z M -3.378906 -8.980469 C -3.226562 -9 -3.027344 -9.011719 -2.785156 -9.011719 C -2.542969 -9.011719 -2.300781 -8.949219 -2.058594 -8.824219 C -1.820312 -8.703125 -1.585938 -8.46875 -1.359375 -8.128906 L -0.421875 -6.710938 L -1.839844 -6.710938 L -2.359375 -7.429688 C -2.558594 -7.710938 -2.8125 -7.851562 -3.121094 -7.851562 C -3.226562 -7.851562 -3.3125 -7.847656 -3.378906 -7.839844 Z "/>
</g>
<g id="glyph-0-11">
<path d="M 1.75 -3.039062 L 1.75 -1.808594 C 1.75 -1.582031 1.816406 -1.429688 1.953125 -1.34375 C 2.089844 -1.261719 2.320312 -1.21875 2.644531 -1.21875 C 2.96875 -1.21875 3.355469 -1.257812 3.808594 -1.328125 L 3.808594 -0.078125 C 3.347656 0.0078125 2.914062 0.0507812 2.5 0.0507812 C 1.800781 0.0507812 1.265625 -0.105469 0.898438 -0.414062 C 0.53125 -0.726562 0.351562 -1.179688 0.351562 -1.78125 L 0.351562 -3.148438 C 0.351562 -3.722656 0.503906 -4.160156 0.816406 -4.460938 C 1.125 -4.761719 1.589844 -4.910156 2.210938 -4.910156 L 2.269531 -4.910156 L 2.269531 -5.539062 L -0.398438 -5.539062 L -0.398438 -6.710938 L 4.570312 -6.710938 L 4.570312 -5.539062 L 3.671875 -5.539062 L 3.671875 -3.640625 L 2.378906 -3.640625 C 2.179688 -3.640625 2.023438 -3.589844 1.914062 -3.484375 C 1.804688 -3.382812 1.75 -3.234375 1.75 -3.039062 Z "/>
</g>
<g id="glyph-0-12">
<path d="M 1.359375 -1.449219 C 1.78125 -1.449219 1.988281 -1.261719 1.988281 -0.878906 C 1.988281 -0.59375 1.875 -0.226562 1.640625 0.214844 C 1.40625 0.660156 1.175781 1.03125 0.949219 1.328125 L 0.148438 1.328125 L 0.609375 -1.449219 Z "/>
</g>
<g id="glyph-0-13">
<path d="M 5.339844 -6.710938 L 5.339844 -5.539062 L 4.519531 -5.539062 L 4.519531 0 L 3.199219 0 L 3.199219 -0.25 C 3.199219 -0.824219 3.253906 -1.335938 3.359375 -1.789062 L 3.339844 -1.789062 C 3.199219 -1.503906 2.929688 -1.101562 2.53125 -0.589844 L 2.078125 0 L 0.460938 0 L 3.121094 -3.421875 L 3.121094 -5.539062 L 2.339844 -5.539062 L 2.339844 -3.660156 C 2.339844 -3.101562 2.191406 -2.683594 1.890625 -2.40625 C 1.589844 -2.128906 1.175781 -1.988281 0.648438 -1.988281 L 0.101562 -2.019531 L 0.101562 -3.371094 C 0.21875 -3.355469 0.332031 -3.351562 0.441406 -3.351562 C 0.773438 -3.351562 0.941406 -3.492188 0.941406 -3.78125 L 0.941406 -5.539062 L -0.398438 -5.539062 L -0.398438 -6.710938 Z "/>
</g>
<g id="glyph-0-14">
<path d="M 0.421875 -6.710938 L 0.421875 -7.410156 C 0.421875 -7.671875 0.277344 -7.800781 -0.0117188 -7.800781 C -0.296875 -7.800781 -0.441406 -7.671875 -0.441406 -7.410156 L -0.441406 -7.230469 L -1.828125 -7.230469 L -1.828125 -7.429688 C -1.828125 -7.976562 -1.671875 -8.386719 -1.351562 -8.65625 C -1.03125 -8.925781 -0.578125 -9.058594 0 -9.058594 C 0.578125 -9.058594 1.027344 -8.925781 1.34375 -8.65625 C 1.660156 -8.386719 1.820312 -7.976562 1.820312 -7.429688 L 1.820312 -6.710938 L 2.640625 -6.710938 L 2.640625 -5.539062 L 1.820312 -5.539062 L 1.820312 0 L 0.421875 0 L 0.421875 -5.539062 L -0.398438 -5.539062 L -0.398438 -6.710938 Z "/>
</g>
<g id="glyph-0-15">
<path d="M 2.449219 -5.070312 C 2.449219 -5.277344 2.417969 -5.433594 2.351562 -5.539062 L -0.398438 -5.539062 L -0.398438 -6.710938 L 6.820312 -6.710938 L 6.820312 -5.539062 L 6 -5.539062 L 6 0 L 4.601562 0 L 4.601562 -2.609375 L 3.449219 -2.609375 C 3.203125 -2.351562 2.808594 -2.21875 2.269531 -2.21875 C 2.082031 -2.21875 1.914062 -2.238281 1.761719 -2.269531 L 1.761719 -1.789062 C 1.761719 -1.402344 2.066406 -1.210938 2.679688 -1.210938 C 3.074219 -1.210938 3.476562 -1.296875 3.890625 -1.46875 L 3.890625 -0.171875 C 3.46875 -0.0234375 2.953125 0.0507812 2.339844 0.0507812 C 1.726562 0.0507812 1.242188 -0.113281 0.890625 -0.441406 C 0.535156 -0.765625 0.359375 -1.199219 0.359375 -1.738281 L 0.359375 -4.511719 L 1.761719 -4.511719 L 1.761719 -3.488281 C 1.867188 -3.460938 1.980469 -3.449219 2.101562 -3.449219 C 2.332031 -3.449219 2.449219 -3.578125 2.449219 -3.839844 Z M 4.601562 -3.808594 L 4.601562 -5.539062 L 3.761719 -5.539062 C 3.800781 -5.433594 3.820312 -5.277344 3.820312 -5.070312 L 3.820312 -3.808594 Z "/>
</g>
<g id="glyph-0-16">
<path d="M 1.429688 -5.070312 C 1.429688 -5.289062 1.40625 -5.445312 1.359375 -5.539062 L -0.398438 -5.539062 L -0.398438 -6.710938 L 5.671875 -6.710938 L 5.671875 -5.539062 L 4.851562 -5.539062 L 4.851562 0 L 3.449219 0 L 3.449219 -0.949219 C 3.242188 -0.890625 2.964844 -0.859375 2.621094 -0.859375 C 1.914062 -0.859375 1.351562 -1.023438 0.929688 -1.34375 C 0.511719 -1.667969 0.300781 -2.121094 0.300781 -2.699219 L 0.300781 -3.960938 L 0.539062 -3.960938 C 0.886719 -3.960938 1.121094 -4.003906 1.246094 -4.089844 C 1.367188 -4.175781 1.429688 -4.34375 1.429688 -4.589844 Z M 2.789062 -5.070312 L 2.789062 -4.300781 C 2.789062 -3.527344 2.417969 -3.121094 1.671875 -3.078125 L 1.671875 -2.898438 C 1.671875 -2.40625 2.011719 -2.160156 2.699219 -2.160156 C 2.992188 -2.160156 3.242188 -2.1875 3.449219 -2.238281 L 3.449219 -5.539062 L 2.730469 -5.539062 C 2.769531 -5.40625 2.789062 -5.25 2.789062 -5.070312 Z "/>
</g>
<g id="glyph-0-17">
<path d="M 0.421875 -5.539062 L -0.398438 -5.539062 L -0.398438 -6.710938 L 2.640625 -6.710938 L 2.640625 -5.539062 L 1.820312 -5.539062 L 1.820312 0 L 0.421875 0 Z "/>
</g>
</g>
<image id="source-1160" x="0" y="0" width="0" height="0"/>
<mask id="mask-0">
<use xlink:href="#source-1160"/>
</mask>
</defs>
<g fill="rgb(100%, 100%, 100%)" fill-opacity="1">
<use xlink:href="#glyph-0-0" x="30" y="30.5"/>
<use xlink:href="#glyph-0-1" x="36" y="30.5"/>
<use xlink:href="#glyph-0-2" x="41" y="30.5"/>
<use xlink:href="#glyph-0-3" x="48" y="30.5"/>
<use xlink:href="#glyph-0-4" x="53" y="30.5"/>
<use xlink:href="#glyph-0-2" x="55" y="30.5"/>
<use xlink:href="#glyph-0-5" x="62" y="30.5"/>
<use xlink:href="#glyph-0-6" x="64" y="30.5"/>
<use xlink:href="#glyph-0-7" x="68" y="30.5"/>
<use xlink:href="#glyph-0-4" x="68" y="30.5"/>
<use xlink:href="#glyph-0-8" x="70" y="30.5"/>
<use xlink:href="#glyph-0-9" x="74" y="30.5"/>
<use xlink:href="#glyph-0-4" x="78" y="30.5"/>
<use xlink:href="#glyph-0-8" x="80" y="30.5"/>
<use xlink:href="#glyph-0-10" x="84" y="30.5"/>
<use xlink:href="#glyph-0-11" x="84" y="30.5"/>
<use xlink:href="#glyph-0-12" x="88" y="30.5"/>
<use xlink:href="#glyph-0-4" x="90" y="30.5"/>
<use xlink:href="#glyph-0-13" x="92" y="30.5"/>
<use xlink:href="#glyph-0-14" x="97" y="30.5"/>
<use xlink:href="#glyph-0-15" x="99" y="30.5"/>
<use xlink:href="#glyph-0-4" x="105" y="30.5"/>
<use xlink:href="#glyph-0-16" x="107" y="30.5"/>
<use xlink:href="#glyph-0-17" x="112" y="30.5"/>
</g>
</svg>
