<?xml version="1.0" encoding="UTF-8"?>
<svg xmlns="http://www.w3.org/2000/svg" xmlns:xlink="http://www.w3.org/1999/xlink" width="1080" height="1920" viewBox="0 0 1080 1920">
<defs>
<g>
<g id="glyph-0-0">
<path d="M 7.335938 -11.554688 L 11.160156 -11.554688 L 11.160156 -9.542969 L 9.746094 -9.542969 L 9.746094 0 L 7.335938 0 L 7.335938 -3.667969 L 6.132812 -3.667969 L 6.132812 -3.566406 C 6.121094 -2.613281 5.828125 -1.882812 5.261719 -1.378906 C 4.691406 -0.871094 3.777344 -0.621094 2.515625 -0.621094 C 1.746094 -0.621094 1.148438 -0.695312 0.722656 -0.84375 L 0.722656 -3.03125 C 1.273438 -2.882812 1.824219 -2.808594 2.367188 -2.808594 C 2.914062 -2.808594 3.28125 -2.875 3.46875 -3.003906 C 3.660156 -3.136719 3.761719 -3.359375 3.773438 -3.667969 L 3.773438 -4.375 C 3.773438 -4.9375 3.46875 -5.21875 2.859375 -5.21875 L 1.84375 -5.21875 L 1.84375 -7.441406 L 2.859375 -7.441406 C 3.179688 -7.441406 3.414062 -7.503906 3.554688 -7.628906 C 3.699219 -7.753906 3.773438 -7.957031 3.773438 -8.234375 L 3.773438 -8.59375 C 3.773438 -8.902344 3.675781 -9.125 3.488281 -9.257812 C 3.296875 -9.390625 2.957031 -9.457031 2.460938 -9.457031 C 1.96875 -9.457031 1.46875 -9.386719 0.964844 -9.25 L 0.964844 -11.4375 C 1.367188 -11.574219 1.890625 -11.640625 2.53125 -11.640625 C 4.929688 -11.640625 6.132812 -10.660156 6.132812 -8.699219 L 6.132812 -8.234375 C 6.132812 -7.316406 5.882812 -6.683594 5.390625 -6.339844 C 5.585938 -6.210938 5.746094 -6.011719 5.871094 -5.734375 L 7.335938 -5.734375 Z "/>
</g>
<g id="glyph-0-1">
<path d="M -0.6875 -11.554688 L 8.785156 -11.554688 L 8.785156 -9.542969 L 7.371094 -9.542969 L 7.371094 0 L 5.082031 0 L 5.082031 -1.050781 C 4.769531 -0.957031 4.355469 -0.914062 3.839844 -0.914062 C 2.726562 -0.914062 1.894531 -1.128906 1.34375 -1.558594 C 0.792969 -1.988281 0.515625 -2.738281 0.515625 -3.804688 L 0.515625 -5.820312 C 0.515625 -6.890625 0.777344 -7.636719 1.300781 -8.070312 C 1.824219 -8.5 2.636719 -8.714844 3.738281 -8.714844 C 4.253906 -8.714844 4.703125 -8.652344 5.082031 -8.523438 L 5.082031 -9.542969 L -0.6875 -9.542969 Z M 5.082031 -6.542969 C 4.726562 -6.671875 4.359375 -6.734375 3.988281 -6.734375 C 3.613281 -6.734375 3.324219 -6.660156 3.117188 -6.511719 L 5.082031 -4.5625 Z M 2.808594 -3.910156 C 2.808594 -3.230469 3.210938 -2.894531 4.011719 -2.894531 C 4.265625 -2.894531 4.585938 -2.917969 4.976562 -2.960938 L 2.808594 -5.113281 Z "/>
</g>
<g id="glyph-0-2">
<rect x="0" y="0" width="0" height="0" mask="url(#mask-0)"/>
</g>
<g id="glyph-0-3">
<path d="M 4.066406 0.101562 C 3.789062 0.101562 3.421875 0.0625 2.960938 -0.015625 L 2.960938 1.414062 L 0.585938 1.414062 L 0.585938 -2.910156 L 2.960938 -2.910156 L 2.960938 -2.152344 C 3.226562 -2.074219 3.492188 -2.03125 3.753906 -2.03125 C 4.019531 -2.03125 4.207031 -2.085938 4.3125 -2.195312 C 4.421875 -2.304688 4.476562 -2.472656 4.476562 -2.703125 L 4.476562 -2.996094 C 4.476562 -3.421875 4.253906 -3.632812 3.804688 -3.632812 L 3.359375 -3.632812 C 2.394531 -3.632812 1.667969 -3.824219 1.179688 -4.203125 C 0.691406 -4.582031 0.449219 -5.203125 0.449219 -6.0625 L 0.449219 -6.234375 C 0.449219 -7.105469 0.683594 -7.734375 1.152344 -8.113281 C 1.625 -8.492188 2.359375 -8.679688 3.359375 -8.679688 L 4.03125 -8.679688 L 4.03125 -9.542969 L -0.6875 -9.542969 L -0.6875 -11.554688 L 7.886719 -11.554688 L 7.886719 -9.542969 L 6.441406 -9.542969 L 6.441406 -6.613281 L 3.359375 -6.613281 C 3.164062 -6.613281 3.03125 -6.578125 2.960938 -6.511719 C 2.894531 -6.441406 2.859375 -6.320312 2.859375 -6.148438 L 2.859375 -6.113281 C 2.859375 -5.804688 3.027344 -5.648438 3.359375 -5.648438 L 3.804688 -5.648438 C 4.863281 -5.648438 5.640625 -5.441406 6.140625 -5.027344 C 6.640625 -4.613281 6.890625 -3.96875 6.890625 -3.082031 L 6.890625 -2.617188 C 6.890625 -1.699219 6.671875 -1.015625 6.242188 -0.566406 C 5.8125 -0.121094 5.085938 0.101562 4.066406 0.101562 Z "/>
</g>
<g id="glyph-0-4">
<path d="M 4.21875 -8.730469 C 4.21875 -9.085938 4.164062 -9.359375 4.046875 -9.542969 L -0.6875 -9.542969 L -0.6875 -11.554688 L 11.746094 -11.554688 L 11.746094 -9.542969 L 10.332031 -9.542969 L 10.332031 0 L 7.921875 0 L 7.921875 -4.496094 L 5.941406 -4.496094 C 5.515625 -4.046875 4.839844 -3.824219 3.910156 -3.824219 C 3.589844 -3.824219 3.296875 -3.851562 3.03125 -3.910156 L 3.03125 -3.082031 C 3.03125 -2.417969 3.558594 -2.082031 4.617188 -2.082031 C 5.292969 -2.082031 5.988281 -2.234375 6.699219 -2.53125 L 6.699219 -0.292969 C 5.976562 -0.0390625 5.085938 0.0859375 4.03125 0.0859375 C 2.972656 0.0859375 2.140625 -0.195312 1.53125 -0.757812 C 0.921875 -1.320312 0.621094 -2.066406 0.621094 -2.996094 L 0.621094 -7.765625 L 3.03125 -7.765625 L 3.03125 -6.011719 C 3.214844 -5.964844 3.410156 -5.941406 3.617188 -5.941406 C 4.019531 -5.941406 4.21875 -6.164062 4.21875 -6.613281 Z M 7.921875 -6.5625 L 7.921875 -9.542969 L 6.476562 -9.542969 C 6.542969 -9.359375 6.578125 -9.085938 6.578125 -8.730469 L 6.578125 -6.5625 Z "/>
</g>
<g id="glyph-0-5">
<path d="M -5.820312 -15.464844 C -5.558594 -15.5 -5.214844 -15.519531 -4.796875 -15.519531 C -4.378906 -15.519531 -3.960938 -15.410156 -3.546875 -15.199219 C -3.132812 -14.988281 -2.734375 -14.585938 -2.34375 -14.003906 L -0.722656 -11.554688 L -3.167969 -11.554688 L -4.066406 -12.796875 C -4.410156 -13.277344 -4.84375 -13.519531 -5.375 -13.519531 C -5.558594 -13.519531 -5.707031 -13.515625 -5.820312 -13.503906 Z "/>
</g>
</g>
<image id="source-26" x="0" y="0" width="0" height="0"/>
<mask id="mask-0">
<use xlink:href="#source-26"/>
</mask>
</defs>
<g fill="rgb(100%, 100%, 100%)" fill-opacity="1">
<use xlink:href="#glyph-0-0" x="30" y="38.083984"/>
<use xlink:href="#glyph-0-1" x="40" y="38.083984"/>
<use xlink:href="#glyph-0-2" x="48" y="38.083984"/>
<use xlink:href="#glyph-0-3" x="51" y="38.083984"/>
<use xlink:href="#glyph-0-4" x="58" y="38.083984"/>
<use xlink:href="#glyph-0-5" x="69" y="38.083984"/>
</g>
</svg>
